<svg data-v-423bf9ae="" xmlns="http://www.w3.org/2000/svg" viewBox="0 0 3886 4481" class="iconLeftSlogan"><!----><!----><!----><g data-v-423bf9ae="" id="ca25a82e-b2aa-400f-8592-4a155bd356fd" fill="#19CEDA" transform="matrix(5.628517904206723,0,0,5.628517904206723,3333.6346387345666,-32.02626767383979)"><path d="M7.44 12.69L8.53 12.69Q8.53 13.69 8.37 14.37Q8.20 15.04 7.82 15.44Q7.43 15.85 6.80 16.02Q6.17 16.19 5.25 16.19L5.25 16.19Q4.35 16.19 3.75 16.05Q3.14 15.91 2.76 15.59Q2.39 15.26 2.22 14.71Q2.06 14.16 2.06 13.34L2.06 13.34L2.06 9.39L0.44 9.39L0.44 8.31L2.06 8.31L2.06 6.16L3.37 6.16L3.37 8.31L8.31 8.31L8.31 9.39L3.37 9.39L3.37 13.34Q3.37 14 3.47 14.36Q3.57 14.71 3.79 14.88Q4.01 15.04 4.36 15.07Q4.72 15.09 5.24 15.09L5.24 15.09Q5.65 15.09 5.98 15.08Q6.30 15.07 6.55 14.99Q6.79 14.92 6.96 14.78Q7.13 14.63 7.24 14.36Q7.34 14.10 7.39 13.69Q7.44 13.28 7.44 12.69L7.44 12.69ZM9.63 12.20L9.63 12.20Q9.63 10.99 9.88 10.19Q10.14 9.40 10.72 8.93Q11.29 8.47 12.21 8.28Q13.13 8.09 14.44 8.09L14.44 8.09Q15.75 8.09 16.67 8.28Q17.58 8.47 18.16 8.93Q18.73 9.40 18.99 10.19Q19.25 10.99 19.25 12.20L19.25 12.20Q19.25 13.41 18.99 14.21Q18.73 15.00 18.16 15.48Q17.58 15.95 16.67 16.14Q15.75 16.34 14.44 16.34L14.44 16.34Q13.13 16.34 12.21 16.14Q11.29 15.95 10.72 15.48Q10.14 15.00 9.88 14.21Q9.63 13.41 9.63 12.20ZM10.94 12.20L10.94 12.20Q10.94 12.85 10.99 13.34Q11.03 13.82 11.17 14.17Q11.30 14.52 11.54 14.74Q11.78 14.96 12.17 15.09Q12.56 15.22 13.11 15.26Q13.67 15.31 14.44 15.31L14.44 15.31Q15.09 15.31 15.61 15.28Q16.13 15.25 16.51 15.14Q16.90 15.03 17.17 14.83Q17.45 14.63 17.61 14.28Q17.78 13.93 17.86 13.42Q17.94 12.91 17.94 12.20L17.94 12.20Q17.94 11.49 17.86 11.00Q17.78 10.50 17.61 10.17Q17.45 9.83 17.17 9.64Q16.90 9.44 16.51 9.34Q16.13 9.24 15.61 9.21Q15.09 9.19 14.44 9.19L14.44 9.19Q13.78 9.19 13.27 9.21Q12.75 9.24 12.36 9.34Q11.98 9.44 11.70 9.64Q11.43 9.83 11.26 10.17Q11.09 10.50 11.02 11.00Q10.94 11.49 10.94 12.20ZM29.97 16.19L28.66 16.19L28.66 11.81Q28.66 11.08 28.55 10.58Q28.44 10.08 28.11 9.77Q27.78 9.46 27.18 9.32Q26.58 9.19 25.59 9.19L25.59 9.19Q24.53 9.19 23.85 9.34Q23.17 9.50 22.78 9.79Q22.39 10.08 22.24 10.48Q22.09 10.88 22.09 11.38L22.09 11.38L22.09 16.19L20.78 16.19L20.78 8.31L22.09 8.31L22.09 9.63Q22.24 9.29 22.50 9.05Q22.77 8.80 23.11 8.63Q23.44 8.46 23.83 8.36Q24.22 8.25 24.61 8.19Q25.00 8.13 25.36 8.11Q25.73 8.09 26.03 8.09L26.03 8.09Q26.91 8.09 27.54 8.20Q28.17 8.31 28.61 8.52Q29.05 8.74 29.32 9.05Q29.59 9.37 29.73 9.78Q29.88 10.19 29.93 10.70Q29.98 11.21 29.98 11.81L29.98 11.81L29.97 16.19ZM36.32 16.34L36.32 16.34Q35.01 16.34 34.09 16.16Q33.17 15.98 32.60 15.53Q32.03 15.09 31.77 14.34Q31.51 13.60 31.51 12.47L31.51 12.47Q31.51 11.18 31.77 10.33Q32.03 9.49 32.60 8.99Q33.17 8.49 34.09 8.29Q35.01 8.09 36.32 8.09L36.32 8.09Q37.26 8.09 37.94 8.23Q38.63 8.37 39.12 8.63Q39.61 8.89 39.91 9.26Q40.22 9.63 40.39 10.03Q40.56 10.44 40.63 10.99Q40.69 11.53 40.69 12.14L40.69 12.14L40.58 12.58L32.82 12.58Q32.82 13.48 33.00 14.06Q33.17 14.64 33.58 14.90Q34.00 15.17 34.67 15.24Q35.33 15.31 36.32 15.31L36.32 15.31Q37.22 15.31 37.81 15.26Q38.40 15.21 38.75 15.07Q39.10 14.92 39.24 14.67Q39.38 14.41 39.38 14L39.38 14L40.69 14Q40.69 14.64 40.47 15.08Q40.25 15.53 39.74 15.81Q39.22 16.08 38.39 16.21Q37.55 16.34 36.32 16.34ZM36.32 9.19L36.32 9.19Q35.66 9.19 35.15 9.21Q34.63 9.24 34.24 9.33Q33.86 9.43 33.58 9.60Q33.31 9.78 33.14 10.01Q32.98 10.25 32.90 10.67Q32.82 11.10 32.82 11.70L32.82 11.70L39.38 11.70Q39.38 10.90 39.21 10.45Q39.04 9.99 38.67 9.70Q38.30 9.41 37.72 9.30Q37.14 9.19 36.32 9.19ZM50.76 11.31L50.76 16.19L49.44 16.19L49.44 11.74Q49.44 11.03 49.35 10.54Q49.26 10.06 48.98 9.75Q48.69 9.45 48.18 9.32Q47.66 9.19 46.82 9.19L46.82 9.19Q45.90 9.19 45.30 9.34Q44.71 9.50 44.37 9.77Q44.02 10.05 43.89 10.44Q43.76 10.83 43.76 11.31L43.76 11.31L43.76 16.19L42.44 16.19L42.44 8.31L43.76 8.31L43.76 9.56Q43.76 9.54 43.82 9.42Q43.87 9.30 44.01 9.14Q44.15 8.98 44.40 8.80Q44.64 8.61 45.02 8.46Q45.41 8.30 45.96 8.20Q46.50 8.09 47.26 8.09L47.26 8.09Q48.00 8.09 48.54 8.19Q49.08 8.28 49.47 8.46Q49.85 8.64 50.10 8.91Q50.34 9.18 50.48 9.53L50.48 9.53Q50.60 9.34 50.85 9.10Q51.09 8.85 51.53 8.63Q51.97 8.40 52.64 8.25Q53.30 8.09 54.26 8.09L54.26 8.09Q55.04 8.09 55.61 8.20Q56.17 8.31 56.56 8.51Q56.95 8.72 57.19 9.03Q57.42 9.34 57.55 9.74Q57.67 10.15 57.72 10.65Q57.76 11.16 57.76 11.74L57.76 11.74L57.76 16.19L56.44 16.19L56.44 11.74Q56.44 11.03 56.35 10.54Q56.26 10.06 55.98 9.75Q55.69 9.45 55.18 9.32Q54.66 9.19 53.82 9.19L53.82 9.19Q52.90 9.19 52.30 9.34Q51.71 9.50 51.37 9.77Q51.02 10.05 50.89 10.44Q50.76 10.83 50.76 11.31L50.76 11.31ZM67.35 16.19L67.35 15.11Q67.33 15.19 67.04 15.52L67.04 15.52Q66.83 15.76 66.49 15.95Q66.15 16.14 65.58 16.25Q65.01 16.35 64.08 16.35L64.08 16.35Q62.84 16.35 61.97 16.23Q61.09 16.10 60.54 15.84Q59.99 15.57 59.73 15.16Q59.47 14.75 59.47 14.18L59.47 14.18Q59.47 13.59 59.61 13.18Q59.75 12.76 60.02 12.48Q60.29 12.20 60.68 12.04Q61.06 11.89 61.55 11.81Q62.04 11.72 62.62 11.70Q63.20 11.68 63.85 11.68L63.85 11.68Q64.79 11.68 65.42 11.76Q66.05 11.84 66.45 11.96Q66.85 12.08 67.05 12.22Q67.26 12.35 67.35 12.47L67.35 12.47Q67.35 11.70 67.28 11.16Q67.22 10.62 67.07 10.26Q66.92 9.90 66.69 9.68Q66.46 9.47 66.12 9.36Q65.78 9.25 65.33 9.22Q64.88 9.19 64.30 9.19L64.30 9.19Q63.40 9.19 62.80 9.23Q62.21 9.28 61.86 9.41Q61.51 9.54 61.37 9.77Q61.22 9.99 61.22 10.36L61.22 10.36L59.91 10.36Q59.91 9.74 60.13 9.31Q60.35 8.88 60.87 8.61Q61.39 8.34 62.23 8.22Q63.07 8.09 64.30 8.09L64.30 8.09Q65.50 8.09 66.34 8.29Q67.17 8.49 67.69 8.99Q68.20 9.49 68.43 10.33Q68.66 11.18 68.66 12.47L68.66 12.47L68.66 16.19L67.35 16.19ZM64.30 15.31L64.30 15.31Q65.17 15.31 65.75 15.23Q66.34 15.15 66.69 14.98Q67.05 14.82 67.20 14.57Q67.35 14.33 67.35 14L67.35 14Q67.35 13.67 67.17 13.44Q67.00 13.21 66.59 13.07Q66.19 12.93 65.52 12.86Q64.85 12.80 63.86 12.80L63.86 12.80Q62.88 12.80 62.27 12.83Q61.67 12.87 61.34 12.99Q61.01 13.11 60.90 13.35Q60.79 13.59 60.79 14L60.79 14Q60.79 14.41 60.90 14.67Q61.02 14.92 61.39 15.07Q61.76 15.21 62.46 15.26Q63.15 15.31 64.30 15.31ZM78.29 10.88L77.19 10.88Q77.19 10.38 77.12 10.06Q77.05 9.73 76.78 9.54Q76.51 9.34 75.99 9.27Q75.47 9.19 74.57 9.19L74.57 9.19Q73.68 9.19 73.13 9.34Q72.58 9.50 72.26 9.78Q71.95 10.06 71.84 10.45Q71.72 10.83 71.72 11.31L71.72 11.31L71.72 16.19L70.41 16.19L70.41 8.31L71.72 8.31L71.72 9.56Q71.79 9.35 71.98 9.10Q72.16 8.84 72.54 8.62Q72.91 8.39 73.51 8.24Q74.11 8.09 75.00 8.09L75.00 8.09Q76.03 8.09 76.67 8.27Q77.31 8.46 77.67 8.81Q78.03 9.16 78.16 9.68Q78.29 10.20 78.29 10.88L78.29 10.88ZM79.16 16.19L79.16 5.69L80.47 5.69L80.47 11.43L80.91 11.43L85.72 8.31L87.69 8.31L82.11 11.98L87.91 16.19L85.94 16.19L80.91 12.41L80.47 12.41L80.47 16.19L79.16 16.19ZM93.38 12.60L93.38 12.60Q94.14 12.60 94.68 12.62Q95.22 12.65 95.59 12.70Q95.96 12.76 96.17 12.85Q96.38 12.94 96.49 13.11Q96.60 13.29 96.63 13.46Q96.66 13.64 96.66 13.86L96.66 13.86Q96.66 14.11 96.63 14.31Q96.60 14.51 96.48 14.68Q96.37 14.84 96.14 14.96Q95.92 15.07 95.53 15.16Q95.14 15.24 94.56 15.27Q93.98 15.31 93.16 15.31L93.16 15.31Q92.26 15.31 91.67 15.26Q91.08 15.21 90.73 15.07Q90.38 14.92 90.24 14.67Q90.10 14.41 90.10 14L90.10 14L88.79 14Q88.79 14.62 89.01 15.05Q89.23 15.48 89.74 15.75Q90.25 16.02 91.09 16.15Q91.93 16.27 93.16 16.27L93.16 16.27Q94.14 16.27 94.89 16.21Q95.63 16.15 96.16 16.03Q96.69 15.91 97.05 15.72Q97.40 15.52 97.60 15.25Q97.81 14.98 97.89 14.63Q97.97 14.28 97.97 13.84L97.97 13.84Q97.97 13.39 97.89 13.05Q97.81 12.71 97.61 12.47Q97.41 12.22 97.07 12.00Q96.74 11.79 96.22 11.69Q95.71 11.59 95.01 11.55Q94.31 11.50 93.38 11.50L93.38 11.50Q92.61 11.50 92.07 11.50Q91.53 11.50 91.17 11.46Q90.80 11.42 90.59 11.35Q90.38 11.27 90.27 11.13Q90.16 10.99 90.13 10.76Q90.10 10.54 90.10 10.31L90.10 10.31Q90.10 9.91 90.28 9.69Q90.45 9.46 90.86 9.35Q91.27 9.24 91.94 9.21Q92.61 9.19 93.60 9.19L93.60 9.19Q94.50 9.19 95.09 9.24Q95.68 9.29 96.03 9.42Q96.38 9.56 96.52 9.79Q96.66 10.02 96.66 10.39L96.66 10.39L97.97 10.39Q97.97 9.80 97.77 9.37Q97.58 8.93 97.08 8.65Q96.58 8.37 95.74 8.23Q94.90 8.09 93.60 8.09L93.60 8.09Q92.29 8.09 91.37 8.21Q90.45 8.33 89.88 8.59Q89.30 8.85 89.04 9.27Q88.79 9.69 88.79 10.31L88.79 10.31Q88.79 10.76 88.87 11.15Q88.95 11.53 89.15 11.80Q89.35 12.06 89.68 12.22Q90.02 12.37 90.53 12.46Q91.04 12.54 91.75 12.57Q92.45 12.60 93.38 12.60Z"></path></g><!----><g data-v-423bf9ae="" id="1dd506ff-951b-4e39-b47d-8ff300188d3d" transform="matrix(7.055555555555555,0,0,7.055555555555555,0.9444444444445708,0.8611111111113132)" stroke="none" fill="#19CEDA"><path d="M145 406c37 0 71 11 96 29V0l38 25 181 121 10 7v175l-36-21-144-86v300c0 74-79 114-145 114S0 595 0 521s79-115 145-115z"></path></g><!----><g data-v-423bf9ae="" id="eb7bab52-d940-463e-8f95-fc6ecdb9838f" fill="#19CEDA" transform="matrix(0.9501708672655679,0,0,0.9501708672655679,3335.6171023725365,57.24450620714247)"><path d="M0.52 12.39C0.52 12.63 0.55 12.68 0.74 12.68C1.06 12.68 2.03 12.64 2.45 12.64C2.87 12.64 7.38 12.68 7.70 12.68C7.83 12.68 7.98 12.66 7.98 12.49C7.98 12.07 8.02 11.23 8.02 10.53C8.02 10.39 7.87 10.39 7.74 10.39C7.63 10.39 7.50 10.39 7.50 10.51C7.49 11.06 7.49 11.41 7.46 11.76C7.43 12.01 7.43 12.04 7.34 12.04C7.18 12.04 4.55 12.08 3.05 12.08C2.98 12.08 2.94 10.11 2.90 8.26C2.90 8.06 2.94 8.09 3.08 8.09L5.36 8.09C6.06 8.09 6.09 8.20 6.09 8.30L6.09 9.00C6.09 9.14 6.27 9.14 6.38 9.14C6.48 9.14 6.61 9.13 6.61 9.02C6.61 8.83 6.58 8.33 6.58 7.83C6.58 7.32 6.61 6.83 6.61 6.71C6.61 6.59 6.47 6.58 6.37 6.58C6.26 6.58 6.09 6.59 6.09 6.72L6.09 7.45C6.09 7.62 5.64 7.63 5.36 7.63L3.02 7.63C2.91 7.63 2.90 7.63 2.90 7.45C2.88 6.75 2.87 6.06 2.87 5.46C2.87 5.12 2.87 3.71 2.95 3.71C4.19 3.71 6.69 3.75 6.69 3.81C6.69 3.99 6.65 4.83 6.65 4.89C6.65 5.04 6.72 5.10 6.90 5.10C7.10 5.10 7.17 5.08 7.17 4.94C7.17 3.85 7.22 3.36 7.22 3.09C7.22 2.91 7.14 2.90 6.94 2.90C6.75 2.90 6.75 2.95 6.72 3.11C6.71 3.25 6.78 3.25 5.87 3.25C5.25 3.25 3.11 3.29 2.34 3.29C1.85 3.29 0.91 3.25 0.81 3.25C0.69 3.25 0.63 3.30 0.63 3.49C0.63 3.72 0.70 3.74 0.87 3.74L1.53 3.74C1.58 3.74 1.65 4.79 1.65 5.71C1.65 5.80 1.71 8.27 1.71 9.83L1.71 11.17C1.71 11.84 1.68 12.18 1.65 12.18L0.80 12.18C0.57 12.18 0.52 12.21 0.52 12.39ZM15.99 12.39C15.99 12.63 16.02 12.68 16.21 12.68C16.53 12.68 17.50 12.64 17.92 12.64C18.34 12.64 22.69 12.68 23.02 12.68C23.28 12.68 23.35 12.66 23.37 12.49C23.42 12.08 23.66 10.72 23.66 10.60C23.66 10.47 23.51 10.44 23.34 10.43C23.24 10.42 23.16 10.46 23.14 10.56L22.97 11.76C22.93 12.05 22.92 12.03 22.69 12.04C22.54 12.05 20.03 12.12 18.61 12.12C18.56 12.12 18.52 11.38 18.52 10.54L18.52 6.66C18.52 5.40 18.54 3.70 18.63 3.70L19.61 3.70C19.85 3.70 19.88 3.63 19.88 3.44C19.88 3.23 19.87 3.19 19.63 3.19C19.31 3.19 18.37 3.23 17.95 3.23C17.53 3.23 16.59 3.19 16.37 3.19C16.14 3.19 16.09 3.22 16.09 3.44C16.09 3.65 16.13 3.70 16.32 3.70L17.15 3.70C17.19 3.70 17.22 4.23 17.22 4.90L17.22 8.13C17.22 10.07 17.19 12.18 17.11 12.18L16.27 12.18C16.04 12.18 15.99 12.21 15.99 12.39ZM31.28 12.39C31.28 12.63 31.30 12.68 31.50 12.68C31.82 12.68 32.79 12.64 33.21 12.64C33.63 12.64 38.14 12.68 38.46 12.68C38.58 12.68 38.74 12.66 38.74 12.49C38.74 12.07 38.78 11.23 38.78 10.53C38.78 10.39 38.63 10.39 38.50 10.39C38.39 10.39 38.26 10.39 38.26 10.51C38.25 11.06 38.25 11.41 38.22 11.76C38.19 12.01 38.19 12.04 38.09 12.04C37.94 12.04 35.31 12.08 33.81 12.08C33.74 12.08 33.70 10.11 33.66 8.26C33.66 8.06 33.70 8.09 33.84 8.09L36.12 8.09C36.82 8.09 36.85 8.20 36.85 8.30L36.85 9.00C36.85 9.14 37.03 9.14 37.14 9.14C37.24 9.14 37.37 9.13 37.37 9.02C37.37 8.83 37.34 8.33 37.34 7.83C37.34 7.32 37.37 6.83 37.37 6.71C37.37 6.59 37.23 6.58 37.13 6.58C37.02 6.58 36.85 6.59 36.85 6.72L36.85 7.45C36.85 7.62 36.40 7.63 36.12 7.63L33.78 7.63C33.67 7.63 33.66 7.63 33.66 7.45C33.64 6.75 33.63 6.06 33.63 5.46C33.63 5.12 33.63 3.71 33.71 3.71C34.94 3.71 37.45 3.75 37.45 3.81C37.45 3.99 37.41 4.83 37.41 4.89C37.41 5.04 37.48 5.10 37.66 5.10C37.86 5.10 37.93 5.08 37.93 4.94C37.93 3.85 37.98 3.36 37.98 3.09C37.98 2.91 37.90 2.90 37.70 2.90C37.51 2.90 37.51 2.95 37.48 3.11C37.46 3.25 37.53 3.25 36.62 3.25C36.01 3.25 33.87 3.29 33.10 3.29C32.61 3.29 31.67 3.25 31.57 3.25C31.44 3.25 31.39 3.30 31.39 3.49C31.39 3.72 31.46 3.74 31.63 3.74L32.28 3.74C32.34 3.74 32.41 4.79 32.41 5.71C32.41 5.80 32.47 8.27 32.47 9.83L32.47 11.17C32.47 11.84 32.44 12.18 32.41 12.18L31.56 12.18C31.33 12.18 31.28 12.21 31.28 12.39ZM46.33 3.51C46.33 3.75 46.42 3.77 46.59 3.77L47.03 3.77C47.11 3.77 49.90 10.99 49.94 11.07C50.43 12.18 50.53 12.99 50.74 12.99C51.00 12.99 51.06 12.67 51.34 12.26C51.49 12.04 51.58 12.01 51.73 11.66L54.96 4.06C55.08 3.81 55.06 3.77 55.43 3.77C55.65 3.77 55.72 3.75 55.72 3.56C55.72 3.32 55.68 3.26 55.48 3.26C55.34 3.26 54.81 3.30 54.39 3.30C53.97 3.30 53.14 3.26 52.92 3.26C52.72 3.26 52.67 3.29 52.67 3.51C52.67 3.75 52.79 3.77 52.96 3.77L53.96 3.77C54.03 3.77 54.04 3.81 54.04 3.95C54.04 4.63 52.36 8.72 51.63 10.63C51.49 10.99 51.41 11.17 51.37 11.17C51.32 11.17 51.23 10.98 51.09 10.60C50.51 9.10 49.38 6.01 48.86 4.49C48.78 4.27 48.69 3.93 48.69 3.79L48.69 3.77L49.67 3.77C49.90 3.77 49.97 3.75 49.97 3.56C49.97 3.32 49.92 3.26 49.73 3.26C49.41 3.26 48.33 3.30 47.91 3.30C47.49 3.30 46.77 3.26 46.59 3.26C46.41 3.26 46.33 3.28 46.33 3.51ZM61.52 12.39C61.52 12.63 61.52 12.68 61.71 12.68C61.88 12.68 62.20 12.64 62.78 12.64C63.39 12.64 63.94 12.68 64.09 12.68C64.26 12.68 64.26 12.61 64.26 12.40C64.26 12.24 64.26 12.18 64.09 12.18L63.01 12.18C63.01 12.18 63 12.18 63 12.17C63.01 11.87 63.78 9.90 64.13 9.02C64.20 8.83 64.22 8.79 64.43 8.79L67.26 8.79C67.40 8.79 67.40 8.81 67.47 9.03C67.73 9.77 68.45 11.89 68.45 12.17C68.45 12.18 68.43 12.18 68.43 12.18L67.66 12.18C67.44 12.18 67.42 12.19 67.42 12.39C67.42 12.63 67.44 12.68 67.61 12.68C67.93 12.68 68.80 12.64 69.22 12.64C69.64 12.64 70.31 12.68 70.52 12.68C70.66 12.68 70.67 12.61 70.67 12.40C70.67 12.24 70.66 12.18 70.52 12.18L70.03 12.18C69.93 12.18 68.91 9.34 68.35 7.78L66.67 3.07C66.65 3.00 66.58 2.94 66.50 2.94C66.37 2.94 66.28 3.16 66.19 3.35C66.04 3.71 65.80 3.84 65.69 4.13L64.20 7.57C64.02 8.01 62.31 12.18 62.19 12.18L61.77 12.18C61.54 12.18 61.52 12.19 61.52 12.39ZM64.41 8.33C64.41 8.30 64.44 8.23 64.48 8.13L65.86 4.77C65.90 4.66 65.93 4.61 65.95 4.61C65.97 4.61 65.98 4.63 66.02 4.77L67.19 8.18C67.21 8.25 67.23 8.29 67.23 8.32C67.23 8.36 67.20 8.37 67.10 8.37L64.60 8.37C64.41 8.37 64.41 8.34 64.41 8.33ZM76.76 5.01C76.76 5.17 76.94 5.17 77.07 5.17C77.22 5.17 77.27 5.15 77.28 4.97L77.39 3.89C77.41 3.81 77.95 3.75 78.71 3.75L80.70 3.75C80.75 3.75 80.78 4.35 80.78 4.97C80.78 6.43 80.72 12.18 80.60 12.18L79.73 12.18C79.51 12.18 79.46 12.19 79.46 12.39C79.46 12.63 79.48 12.68 79.67 12.68C80.00 12.68 80.98 12.64 81.40 12.64C81.82 12.64 82.75 12.68 83.08 12.68C83.24 12.68 83.27 12.61 83.27 12.40C83.27 12.24 83.24 12.18 83.08 12.18L82.08 12.18C82.05 12.18 82.05 11.76 82.05 11.31C82.05 9.56 82.14 5.96 82.14 5.92C82.15 5.18 82.15 3.75 82.25 3.75L83.86 3.75C84.57 3.75 85.40 3.78 85.40 3.85C85.40 3.99 85.36 4.90 85.36 4.97C85.36 5.12 85.43 5.17 85.61 5.17C85.81 5.17 85.88 5.17 85.88 5.03C85.88 3.93 85.93 3.40 85.93 3.14C85.93 2.94 85.85 2.94 85.65 2.94C85.50 2.94 85.44 2.98 85.43 3.16C85.43 3.23 84.78 3.28 83.94 3.28L78.95 3.28C78.29 3.28 77.48 3.28 77.48 3.21L77.48 3.07C77.48 2.94 77.35 2.94 77.25 2.94C77.03 2.94 77.00 3.00 76.99 3.19C76.93 3.89 76.76 4.97 76.76 5.01ZM93.55 12.39C93.55 12.63 93.59 12.68 93.79 12.68C94.11 12.68 94.86 12.64 95.58 12.64C96.24 12.64 97.03 12.68 97.26 12.68C97.43 12.68 97.45 12.61 97.45 12.40C97.45 12.24 97.43 12.18 97.26 12.18L96.29 12.18C96.19 12.18 96.17 9.55 96.17 7.76L96.17 5.87C96.17 5.14 96.19 3.70 96.29 3.70L97.20 3.70C97.43 3.70 97.45 3.68 97.45 3.49C97.45 3.25 97.43 3.19 97.26 3.19C96.94 3.19 96.26 3.23 95.61 3.23C94.79 3.23 94.08 3.19 93.86 3.19C93.67 3.19 93.60 3.21 93.60 3.44C93.60 3.68 93.69 3.70 93.86 3.70L94.78 3.70C94.82 3.70 94.89 4.79 94.89 5.71L94.89 7.08C94.89 8.92 94.88 12.18 94.77 12.18L93.84 12.18C93.62 12.18 93.55 12.19 93.55 12.39ZM105.35 12.39C105.35 12.63 105.36 12.68 105.56 12.68C105.74 12.68 106.12 12.64 106.74 12.64C107.37 12.64 107.93 12.68 108.25 12.68C108.42 12.68 108.42 12.61 108.42 12.40C108.42 12.24 108.42 12.18 108.25 12.18L107.04 12.18C107.00 12.18 106.99 11.54 106.99 10.79C106.99 9.46 107.00 7.48 107.00 5.99C107.00 5.25 107.00 4.84 107.02 4.28C107.02 4.02 107.09 4.14 107.21 4.28L114.10 12.66C114.18 12.75 114.27 12.89 114.38 12.89C114.49 12.89 114.56 12.77 114.56 12.54C114.56 12.39 114.73 6.65 114.74 4.48C114.74 4.06 114.77 3.70 114.80 3.70L115.43 3.70C115.65 3.70 115.71 3.68 115.71 3.49C115.71 3.25 115.71 3.19 115.51 3.19C115.32 3.19 114.88 3.23 114.32 3.23C113.71 3.23 112.91 3.19 112.81 3.19C112.64 3.19 112.64 3.26 112.64 3.47C112.64 3.64 112.64 3.70 112.81 3.70L114.11 3.70C114.13 3.70 114.13 4.33 114.13 4.44C114.13 5.85 114.16 8.33 114.16 9.70L114.16 10.29C114.16 10.57 114.14 10.65 113.92 10.37L108.23 3.39C108.12 3.25 108.09 3.19 107.93 3.19C107.84 3.19 107.46 3.23 107.16 3.23C106.86 3.23 105.78 3.19 105.59 3.19C105.42 3.19 105.39 3.26 105.39 3.47C105.39 3.64 105.42 3.70 105.59 3.70L106.50 3.70C106.50 4.17 106.46 8.53 106.39 10.79C106.36 11.69 106.37 12.18 106.26 12.18L105.62 12.18C105.39 12.18 105.35 12.19 105.35 12.39ZM123.82 7.91C123.82 11.40 126.18 12.89 128.77 12.89C130.66 12.89 132.66 11.89 132.66 11.58C132.66 11.12 132.68 10.68 132.68 10.33C132.68 9.81 132.69 9.56 132.82 9.56L133.25 9.56C133.39 9.56 133.41 9.39 133.41 9.30C133.41 9.18 133.39 9.06 133.25 9.06C133.03 9.06 132.66 9.10 131.99 9.10C131.54 9.10 130.80 9.07 130.12 9.06C129.98 9.06 129.98 9.24 129.98 9.35C129.98 9.45 130.00 9.56 130.13 9.56L131.35 9.56C131.39 9.56 131.45 9.87 131.45 10.33C131.45 10.82 131.43 11.41 131.40 11.65C131.39 11.76 130.75 12.39 129.16 12.39C126.92 12.39 125.33 10.29 125.33 7.94C125.33 5.42 126.88 3.54 128.88 3.54C130.77 3.54 131.95 4.87 131.95 5.03C131.95 5.15 131.89 6.12 131.89 6.17C131.89 6.31 131.94 6.36 132.20 6.36C132.40 6.36 132.47 6.33 132.47 6.15C132.47 5.43 132.51 3.75 132.51 3.56C132.51 3.36 132.41 3.33 132.20 3.33C131.98 3.33 131.95 3.39 131.95 3.56L131.95 3.91C131.95 3.99 131.91 4.02 131.78 3.92C131.50 3.72 130.51 3.08 128.94 3.08C126.10 3.08 123.82 4.79 123.82 7.91ZM151.10 12.39C151.10 12.63 151.10 12.68 151.30 12.68C151.47 12.68 151.79 12.64 152.36 12.64C152.98 12.64 153.52 12.68 153.68 12.68C153.85 12.68 153.85 12.61 153.85 12.40C153.85 12.24 153.85 12.18 153.68 12.18L152.60 12.18C152.60 12.18 152.59 12.18 152.59 12.17C152.60 11.87 153.37 9.90 153.72 9.02C153.79 8.83 153.80 8.79 154.01 8.79L156.84 8.79C156.98 8.79 156.98 8.81 157.05 9.03C157.32 9.77 158.03 11.89 158.03 12.17C158.03 12.18 158.02 12.18 158.02 12.18L157.25 12.18C157.02 12.18 157.01 12.19 157.01 12.39C157.01 12.63 157.02 12.68 157.19 12.68C157.51 12.68 158.38 12.64 158.80 12.64C159.22 12.64 159.89 12.68 160.10 12.68C160.24 12.68 160.26 12.61 160.26 12.40C160.26 12.24 160.24 12.18 160.10 12.18L159.61 12.18C159.52 12.18 158.49 9.34 157.93 7.78L156.25 3.07C156.24 3.00 156.17 2.94 156.09 2.94C155.96 2.94 155.86 3.16 155.78 3.35C155.62 3.71 155.39 3.84 155.27 4.13L153.79 7.57C153.61 8.01 151.90 12.18 151.77 12.18L151.35 12.18C151.13 12.18 151.10 12.19 151.10 12.39ZM154.00 8.33C154.00 8.30 154.03 8.23 154.07 8.13L155.44 4.77C155.48 4.66 155.51 4.61 155.54 4.61C155.55 4.61 155.57 4.63 155.61 4.77L156.77 8.18C156.80 8.25 156.81 8.29 156.81 8.32C156.81 8.36 156.79 8.37 156.69 8.37L154.18 8.37C154.00 8.37 154.00 8.34 154.00 8.33ZM167.87 12.39C167.87 12.63 167.92 12.68 168.11 12.68C168.43 12.68 169.19 12.64 169.90 12.64C170.56 12.64 171.36 12.68 171.58 12.68C171.75 12.68 171.78 12.61 171.78 12.40C171.78 12.24 171.75 12.18 171.58 12.18L170.62 12.18C170.52 12.18 170.49 9.55 170.49 7.76L170.49 5.87C170.49 5.14 170.52 3.70 170.62 3.70L171.53 3.70C171.75 3.70 171.78 3.68 171.78 3.49C171.78 3.25 171.75 3.19 171.58 3.19C171.26 3.19 170.59 3.23 169.93 3.23C169.12 3.23 168.41 3.19 168.18 3.19C168 3.19 167.93 3.21 167.93 3.44C167.93 3.68 168.01 3.70 168.18 3.70L169.11 3.70C169.15 3.70 169.22 4.79 169.22 5.71L169.22 7.08C169.22 8.92 169.20 12.18 169.09 12.18L168.17 12.18C167.94 12.18 167.87 12.19 167.87 12.39ZM189.48 3.49C189.48 3.72 189.59 3.74 189.76 3.74L190.37 3.74C190.43 3.74 190.50 4.79 190.50 5.71C190.50 5.80 190.55 8.27 190.55 9.83L190.55 11.17C190.55 11.84 190.54 12.18 190.48 12.18L189.90 12.18C189.67 12.18 189.60 12.19 189.60 12.39C189.60 12.63 189.62 12.68 189.81 12.68C190.02 12.68 190.86 12.64 191.28 12.64C191.70 12.64 192.64 12.68 192.96 12.68C193.13 12.68 193.16 12.61 193.16 12.40C193.16 12.24 193.13 12.18 192.96 12.18L191.83 12.18C191.77 12.18 191.79 10.16 191.74 8.33C191.74 8.08 191.73 8.09 191.93 8.09L194.35 8.09C195.05 8.09 195.08 8.19 195.08 8.30L195.08 9.16C195.08 9.28 195.26 9.28 195.37 9.28C195.47 9.28 195.59 9.28 195.59 9.17C195.59 8.99 195.57 8.33 195.57 7.83C195.57 7.32 195.59 6.82 195.59 6.69C195.59 6.58 195.48 6.58 195.36 6.58C195.19 6.58 195.08 6.58 195.08 6.71L195.08 7.45C195.08 7.62 194.63 7.63 194.35 7.63L191.93 7.63C191.72 7.63 191.74 7.66 191.74 7.45C191.73 7.13 191.72 6.15 191.72 5.26C191.72 4.52 191.73 3.71 191.80 3.71C193.20 3.71 195.38 3.75 195.68 3.79C195.68 3.96 195.64 4.82 195.64 4.89C195.64 5.04 195.71 5.10 195.89 5.10C196.08 5.10 196.15 5.08 196.15 4.94C196.15 3.85 196.21 3.36 196.21 3.09C196.21 2.93 196.13 2.90 195.93 2.90C195.80 2.90 195.73 2.90 195.71 3.11C195.69 3.25 195.76 3.25 194.81 3.25C194.21 3.25 191.93 3.29 191.18 3.29C190.69 3.29 189.76 3.25 189.66 3.25C189.53 3.25 189.48 3.30 189.48 3.49ZM204.25 8.15C204.25 11.17 206.58 12.80 208.84 12.80C211.62 12.80 213.60 10.89 213.60 8.06C213.60 5.33 211.85 3.11 209.05 3.11C206.44 3.11 204.25 5.10 204.25 8.15ZM205.65 7.77C205.65 5.64 206.93 3.58 208.91 3.58C211.15 3.58 212.23 5.81 212.23 7.94C212.23 10.08 211.12 12.32 208.85 12.32C206.86 12.32 205.65 10.28 205.65 7.77ZM221.70 3.51C221.70 3.72 221.77 3.79 221.97 3.79L222.78 3.77C222.88 3.77 222.92 6.61 222.92 8.55L222.92 10.42C222.92 11.30 222.91 12.18 222.87 12.18L222.26 12.18C222.04 12.18 221.97 12.19 221.97 12.39C221.97 12.63 222.01 12.68 222.21 12.68C222.33 12.68 223.16 12.64 223.58 12.64C224 12.64 224.77 12.68 225.09 12.68C225.26 12.68 225.29 12.61 225.29 12.40C225.29 12.24 225.26 12.18 225.09 12.18L224.28 12.18C224.21 12.18 224.13 9.18 224.13 8.37C224.13 8.30 224.13 8.26 224.24 8.26C224.63 8.26 225.23 8.27 225.53 8.27C227.77 8.32 227.91 10.00 227.91 11.68L227.91 12.49C227.91 12.61 227.96 12.64 228.06 12.64C228.06 12.64 229.50 12.68 229.98 12.68C230.15 12.68 230.20 12.64 230.20 12.53C230.20 12.24 230.15 12.18 229.99 12.18L229.35 12.18C229.25 12.18 229.22 12.14 229.19 11.31C229.11 8.99 227.74 8.34 226.83 8.05C226.69 8.01 226.72 8.01 226.83 7.95C227.42 7.69 228.73 6.94 228.73 5.63C228.73 3.63 227.04 3.21 225.64 3.21C225.32 3.21 224.03 3.29 223.61 3.29C223.19 3.29 222.21 3.26 221.98 3.26C221.80 3.26 221.70 3.28 221.70 3.51ZM224.13 7.80L224.13 4.40C224.13 4.05 224.15 3.68 224.20 3.68C224.41 3.65 224.69 3.65 224.91 3.65C226.21 3.65 227.46 4.47 227.46 5.82C227.46 6.99 226.91 7.57 226.25 7.88C226.21 7.90 226.17 7.90 226.10 7.90C225.62 7.88 224.91 7.88 224.31 7.87C224.14 7.87 224.13 7.85 224.13 7.80ZM247.48 12.39C247.48 12.63 247.51 12.68 247.70 12.68C248.02 12.68 248.99 12.64 249.41 12.64C249.83 12.64 254.34 12.68 254.66 12.68C254.79 12.68 254.94 12.66 254.94 12.49C254.94 12.07 254.98 11.23 254.98 10.53C254.98 10.39 254.83 10.39 254.70 10.39C254.59 10.39 254.46 10.39 254.46 10.51C254.45 11.06 254.45 11.41 254.42 11.76C254.39 12.01 254.39 12.04 254.30 12.04C254.14 12.04 251.51 12.08 250.01 12.08C249.94 12.08 249.90 10.11 249.86 8.26C249.86 8.06 249.90 8.09 250.04 8.09L252.32 8.09C253.02 8.09 253.05 8.20 253.05 8.30L253.05 9.00C253.05 9.14 253.23 9.14 253.34 9.14C253.44 9.14 253.57 9.13 253.57 9.02C253.57 8.83 253.54 8.33 253.54 7.83C253.54 7.32 253.57 6.83 253.57 6.71C253.57 6.59 253.43 6.58 253.33 6.58C253.22 6.58 253.05 6.59 253.05 6.72L253.05 7.45C253.05 7.62 252.60 7.63 252.32 7.63L249.98 7.63C249.87 7.63 249.86 7.63 249.86 7.45C249.84 6.75 249.83 6.06 249.83 5.46C249.83 5.12 249.83 3.71 249.91 3.71C251.15 3.71 253.65 3.75 253.65 3.81C253.65 3.99 253.61 4.83 253.61 4.89C253.61 5.04 253.68 5.10 253.86 5.10C254.06 5.10 254.13 5.08 254.13 4.94C254.13 3.85 254.18 3.36 254.18 3.09C254.18 2.91 254.10 2.90 253.90 2.90C253.71 2.90 253.71 2.95 253.68 3.11C253.67 3.25 253.74 3.25 252.83 3.25C252.21 3.25 250.07 3.29 249.30 3.29C248.81 3.29 247.87 3.25 247.77 3.25C247.65 3.25 247.59 3.30 247.59 3.49C247.59 3.72 247.66 3.74 247.83 3.74L248.49 3.74C248.54 3.74 248.61 4.79 248.61 5.71C248.61 5.80 248.67 8.27 248.67 9.83L248.67 11.17C248.67 11.84 248.64 12.18 248.61 12.18L247.76 12.18C247.53 12.18 247.48 12.21 247.48 12.39ZM262.53 3.51C262.53 3.75 262.63 3.77 262.79 3.77L263.23 3.77C263.31 3.77 266.10 10.99 266.14 11.07C266.63 12.18 266.73 12.99 266.94 12.99C267.20 12.99 267.26 12.67 267.54 12.26C267.69 12.04 267.78 12.01 267.93 11.66L271.17 4.06C271.28 3.81 271.26 3.77 271.63 3.77C271.85 3.77 271.92 3.75 271.92 3.56C271.92 3.32 271.88 3.26 271.68 3.26C271.54 3.26 271.01 3.30 270.59 3.30C270.17 3.30 269.35 3.26 269.12 3.26C268.93 3.26 268.87 3.29 268.87 3.51C268.87 3.75 269.00 3.77 269.16 3.77L270.16 3.77C270.23 3.77 270.24 3.81 270.24 3.95C270.24 4.63 268.56 8.72 267.83 10.63C267.69 10.99 267.61 11.17 267.57 11.17C267.53 11.17 267.43 10.98 267.29 10.60C266.71 9.10 265.58 6.01 265.06 4.49C264.98 4.27 264.89 3.93 264.89 3.79L264.89 3.77L265.87 3.77C266.10 3.77 266.17 3.75 266.17 3.56C266.17 3.32 266.13 3.26 265.93 3.26C265.61 3.26 264.53 3.30 264.11 3.30C263.69 3.30 262.98 3.26 262.79 3.26C262.61 3.26 262.53 3.28 262.53 3.51ZM279.54 12.39C279.54 12.63 279.57 12.68 279.76 12.68C280.08 12.68 281.05 12.64 281.47 12.64C281.89 12.64 286.40 12.68 286.72 12.68C286.85 12.68 287 12.66 287 12.49C287 12.07 287.04 11.23 287.04 10.53C287.04 10.39 286.89 10.39 286.76 10.39C286.65 10.39 286.52 10.39 286.52 10.51C286.51 11.06 286.51 11.41 286.48 11.76C286.45 12.01 286.45 12.04 286.36 12.04C286.20 12.04 283.57 12.08 282.07 12.08C282.00 12.08 281.96 10.11 281.92 8.26C281.92 8.06 281.96 8.09 282.10 8.09L284.38 8.09C285.08 8.09 285.11 8.20 285.11 8.30L285.11 9.00C285.11 9.14 285.29 9.14 285.40 9.14C285.50 9.14 285.63 9.13 285.63 9.02C285.63 8.83 285.60 8.33 285.60 7.83C285.60 7.32 285.63 6.83 285.63 6.71C285.63 6.59 285.49 6.58 285.39 6.58C285.28 6.58 285.11 6.59 285.11 6.72L285.11 7.45C285.11 7.62 284.66 7.63 284.38 7.63L282.04 7.63C281.93 7.63 281.92 7.63 281.92 7.45C281.90 6.75 281.89 6.06 281.89 5.46C281.89 5.12 281.89 3.71 281.97 3.71C283.21 3.71 285.71 3.75 285.71 3.81C285.71 3.99 285.67 4.83 285.67 4.89C285.67 5.04 285.74 5.10 285.92 5.10C286.12 5.10 286.19 5.08 286.19 4.94C286.19 3.85 286.24 3.36 286.24 3.09C286.24 2.91 286.16 2.90 285.96 2.90C285.77 2.90 285.77 2.95 285.74 3.11C285.73 3.25 285.80 3.25 284.89 3.25C284.27 3.25 282.13 3.29 281.36 3.29C280.87 3.29 279.93 3.25 279.83 3.25C279.71 3.25 279.65 3.30 279.65 3.49C279.65 3.72 279.72 3.74 279.89 3.74L280.55 3.74C280.60 3.74 280.67 4.79 280.67 5.71C280.67 5.80 280.73 8.27 280.73 9.83L280.73 11.17C280.73 11.84 280.70 12.18 280.67 12.18L279.82 12.18C279.59 12.18 279.54 12.21 279.54 12.39ZM295.01 3.51C295.01 3.72 295.08 3.79 295.27 3.79L296.09 3.77C296.18 3.77 296.23 6.61 296.23 8.55L296.23 10.42C296.23 11.30 296.21 12.18 296.17 12.18L295.57 12.18C295.34 12.18 295.27 12.19 295.27 12.39C295.27 12.63 295.32 12.68 295.51 12.68C295.64 12.68 296.46 12.64 296.88 12.64C297.30 12.64 298.07 12.68 298.40 12.68C298.56 12.68 298.59 12.61 298.59 12.40C298.59 12.24 298.56 12.18 298.40 12.18L297.58 12.18C297.51 12.18 297.43 9.18 297.43 8.37C297.43 8.30 297.43 8.26 297.54 8.26C297.93 8.26 298.54 8.27 298.83 8.27C301.07 8.32 301.21 10.00 301.21 11.68L301.21 12.49C301.21 12.61 301.27 12.64 301.36 12.64C301.36 12.64 302.81 12.68 303.28 12.68C303.45 12.68 303.51 12.64 303.51 12.53C303.51 12.24 303.45 12.18 303.30 12.18L302.65 12.18C302.55 12.18 302.53 12.14 302.50 11.31C302.41 8.99 301.04 8.34 300.13 8.05C299.99 8.01 300.02 8.01 300.13 7.95C300.72 7.69 302.04 6.94 302.04 5.63C302.04 3.63 300.34 3.21 298.94 3.21C298.62 3.21 297.33 3.29 296.91 3.29C296.49 3.29 295.51 3.26 295.29 3.26C295.11 3.26 295.01 3.28 295.01 3.51ZM297.43 7.80L297.43 4.40C297.43 4.05 297.46 3.68 297.50 3.68C297.71 3.65 297.99 3.65 298.21 3.65C299.52 3.65 300.76 4.47 300.76 5.82C300.76 6.99 300.22 7.57 299.56 7.88C299.52 7.90 299.47 7.90 299.40 7.90C298.93 7.88 298.21 7.88 297.61 7.87C297.44 7.87 297.43 7.85 297.43 7.80ZM310.14 3.44C310.14 3.68 310.23 3.70 310.39 3.70L310.80 3.70C310.93 3.70 313.18 7.74 313.59 8.50C313.64 8.60 313.68 8.65 313.68 8.81C313.68 10.50 313.67 12.18 313.54 12.18L312.83 12.18C312.61 12.18 312.56 12.19 312.56 12.39C312.56 12.63 312.58 12.68 312.77 12.68C312.97 12.68 313.78 12.64 314.37 12.64C315.20 12.64 315.73 12.68 316.05 12.68C316.22 12.68 316.25 12.61 316.25 12.40C316.25 12.24 316.22 12.18 316.05 12.18L315.08 12.18C314.99 12.18 314.96 9.72 314.96 8.22C314.96 8.18 314.96 8.15 315 8.09C315.55 7.22 317.49 3.70 317.56 3.70L318.04 3.70C318.21 3.70 318.30 3.68 318.30 3.44C318.30 3.22 318.22 3.19 318.04 3.19C317.81 3.19 317.58 3.23 316.97 3.23C316.39 3.23 316.05 3.19 315.88 3.19C315.69 3.19 315.64 3.25 315.64 3.49C315.64 3.68 315.71 3.70 315.94 3.70L316.67 3.70C316.68 3.70 316.69 3.71 316.69 3.74C316.69 4.05 315.13 6.99 314.75 7.71C314.64 7.92 314.64 7.88 314.52 7.67C314.12 6.89 312.83 4.56 312.54 3.85C312.48 3.71 312.47 3.70 312.65 3.70L313.47 3.70C313.70 3.70 313.73 3.68 313.73 3.49C313.73 3.25 313.68 3.19 313.53 3.19C313.29 3.19 312.68 3.23 311.88 3.23C311.07 3.23 310.58 3.19 310.39 3.19C310.21 3.19 310.14 3.21 310.14 3.44ZM335.72 12.39C335.72 12.63 335.75 12.68 335.94 12.68C336.27 12.68 337.23 12.64 337.65 12.64C338.07 12.64 342.43 12.68 342.75 12.68C343.01 12.68 343.08 12.66 343.10 12.49C343.15 12.08 343.39 10.72 343.39 10.60C343.39 10.47 343.24 10.44 343.07 10.43C342.97 10.42 342.89 10.46 342.87 10.56L342.71 11.76C342.66 12.05 342.65 12.03 342.43 12.04C342.27 12.05 339.77 12.12 338.34 12.12C338.30 12.12 338.25 11.38 338.25 10.54L338.25 6.66C338.25 5.40 338.27 3.70 338.37 3.70L339.35 3.70C339.58 3.70 339.61 3.63 339.61 3.44C339.61 3.23 339.60 3.19 339.36 3.19C339.04 3.19 338.10 3.23 337.68 3.23C337.26 3.23 336.32 3.19 336.10 3.19C335.87 3.19 335.82 3.22 335.82 3.44C335.82 3.65 335.86 3.70 336.06 3.70L336.88 3.70C336.92 3.70 336.95 4.23 336.95 4.90L336.95 8.13C336.95 10.07 336.92 12.18 336.84 12.18L336 12.18C335.78 12.18 335.72 12.21 335.72 12.39ZM350.87 12.39C350.87 12.63 350.87 12.68 351.06 12.68C351.23 12.68 351.55 12.64 352.13 12.64C352.74 12.64 353.29 12.68 353.44 12.68C353.61 12.68 353.61 12.61 353.61 12.40C353.61 12.24 353.61 12.18 353.44 12.18L352.37 12.18C352.37 12.18 352.35 12.18 352.35 12.17C352.37 11.87 353.14 9.90 353.49 9.02C353.56 8.83 353.57 8.79 353.78 8.79L356.61 8.79C356.75 8.79 356.75 8.81 356.82 9.03C357.08 9.77 357.80 11.89 357.80 12.17C357.80 12.18 357.78 12.18 357.78 12.18L357.01 12.18C356.79 12.18 356.78 12.19 356.78 12.39C356.78 12.63 356.79 12.68 356.96 12.68C357.28 12.68 358.15 12.64 358.57 12.64C358.99 12.64 359.66 12.68 359.87 12.68C360.01 12.68 360.02 12.61 360.02 12.40C360.02 12.24 360.01 12.18 359.87 12.18L359.38 12.18C359.28 12.18 358.26 9.34 357.70 7.78L356.02 3.07C356.01 3.00 355.94 2.94 355.85 2.94C355.73 2.94 355.63 3.16 355.54 3.35C355.39 3.71 355.15 3.84 355.04 4.13L353.56 7.57C353.37 8.01 351.67 12.18 351.54 12.18L351.12 12.18C350.90 12.18 350.87 12.19 350.87 12.39ZM353.77 8.33C353.77 8.30 353.79 8.23 353.84 8.13L355.21 4.77C355.25 4.66 355.28 4.61 355.31 4.61C355.32 4.61 355.33 4.63 355.38 4.77L356.54 8.18C356.57 8.25 356.58 8.29 356.58 8.32C356.58 8.36 356.55 8.37 356.45 8.37L353.95 8.37C353.77 8.37 353.77 8.34 353.77 8.33ZM367.78 12.39C367.78 12.63 367.79 12.68 367.99 12.68C368.17 12.68 368.55 12.64 369.17 12.64C369.80 12.64 370.36 12.68 370.68 12.68C370.85 12.68 370.85 12.61 370.85 12.40C370.85 12.24 370.85 12.18 370.68 12.18L369.47 12.18C369.43 12.18 369.42 11.54 369.42 10.79C369.42 9.46 369.43 7.48 369.43 5.99C369.43 5.25 369.43 4.84 369.45 4.28C369.45 4.02 369.52 4.14 369.64 4.28L376.53 12.66C376.61 12.75 376.70 12.89 376.81 12.89C376.92 12.89 376.99 12.77 376.99 12.54C376.99 12.39 377.16 6.65 377.17 4.48C377.17 4.06 377.20 3.70 377.23 3.70L377.86 3.70C378.08 3.70 378.14 3.68 378.14 3.49C378.14 3.25 378.14 3.19 377.94 3.19C377.75 3.19 377.31 3.23 376.75 3.23C376.14 3.23 375.34 3.19 375.24 3.19C375.07 3.19 375.07 3.26 375.07 3.47C375.07 3.64 375.07 3.70 375.24 3.70L376.54 3.70C376.56 3.70 376.56 4.33 376.56 4.44C376.56 5.85 376.59 8.33 376.59 9.70L376.59 10.29C376.59 10.57 376.57 10.65 376.35 10.37L370.66 3.39C370.55 3.25 370.52 3.19 370.36 3.19C370.27 3.19 369.89 3.23 369.59 3.23C369.29 3.23 368.21 3.19 368.02 3.19C367.85 3.19 367.82 3.26 367.82 3.47C367.82 3.64 367.85 3.70 368.02 3.70L368.93 3.70C368.93 4.17 368.89 8.53 368.82 10.79C368.79 11.69 368.80 12.18 368.69 12.18L368.05 12.18C367.82 12.18 367.78 12.19 367.78 12.39ZM386.25 7.91C386.25 11.40 388.61 12.89 391.20 12.89C393.09 12.89 395.09 11.89 395.09 11.58C395.09 11.12 395.11 10.68 395.11 10.33C395.11 9.81 395.12 9.56 395.25 9.56L395.68 9.56C395.82 9.56 395.84 9.39 395.84 9.30C395.84 9.18 395.82 9.06 395.68 9.06C395.46 9.06 395.09 9.10 394.42 9.10C393.97 9.10 393.23 9.07 392.55 9.06C392.41 9.06 392.41 9.24 392.41 9.35C392.41 9.45 392.43 9.56 392.56 9.56L393.78 9.56C393.82 9.56 393.88 9.87 393.88 10.33C393.88 10.82 393.86 11.41 393.83 11.65C393.82 11.76 393.18 12.39 391.59 12.39C389.35 12.39 387.76 10.29 387.76 7.94C387.76 5.42 389.31 3.54 391.31 3.54C393.20 3.54 394.38 4.87 394.38 5.03C394.38 5.15 394.32 6.12 394.32 6.17C394.32 6.31 394.37 6.36 394.63 6.36C394.83 6.36 394.90 6.33 394.90 6.15C394.90 5.43 394.94 3.75 394.94 3.56C394.94 3.36 394.84 3.33 394.63 3.33C394.41 3.33 394.38 3.39 394.38 3.56L394.38 3.91C394.38 3.99 394.34 4.02 394.21 3.92C393.93 3.72 392.94 3.08 391.37 3.08C388.53 3.08 386.25 4.79 386.25 7.91ZM403.87 3.51C403.87 3.75 403.96 3.77 404.12 3.77L404.66 3.77C404.71 3.77 404.71 4.12 404.71 4.55C404.71 5.66 404.70 8.96 404.70 9.42C404.70 11.13 404.95 12.80 407.81 12.80C408.88 12.80 410.05 12.38 410.70 12.00C410.96 11.86 411.25 11.72 411.33 11.72C411.60 11.72 411.87 12.74 412.20 12.74C412.52 12.74 412.54 12.35 412.54 12.25C412.54 11.96 412.59 10.08 412.64 8.16C412.69 6.12 412.68 3.77 412.79 3.77L413.11 3.77C413.34 3.77 413.41 3.75 413.41 3.56C413.41 3.32 413.36 3.26 413.17 3.26C413.03 3.26 412.50 3.30 412.08 3.30C411.66 3.30 410.86 3.26 410.63 3.26C410.45 3.26 410.35 3.28 410.35 3.51C410.35 3.75 410.47 3.77 410.63 3.77L411.33 3.77C411.40 3.77 411.42 4.30 411.42 4.87L411.42 9.14C411.42 11.19 411.42 11.12 411.08 11.34C410.69 11.61 409.88 12.08 408.70 12.08C406.73 12.08 405.93 11.17 405.93 9.41C405.93 8.82 406.00 3.77 406.11 3.77L407.02 3.77C407.25 3.77 407.29 3.75 407.29 3.56C407.29 3.32 407.27 3.26 407.08 3.26C406.76 3.26 405.87 3.30 405.45 3.30C405.03 3.30 404.35 3.26 404.12 3.26C403.94 3.26 403.87 3.28 403.87 3.51ZM420.88 12.39C420.88 12.63 420.88 12.68 421.08 12.68C421.25 12.68 421.57 12.64 422.14 12.64C422.76 12.64 423.30 12.68 423.46 12.68C423.63 12.68 423.63 12.61 423.63 12.40C423.63 12.24 423.63 12.18 423.46 12.18L422.38 12.18C422.38 12.18 422.37 12.18 422.37 12.17C422.38 11.87 423.15 9.90 423.50 9.02C423.57 8.83 423.58 8.79 423.79 8.79L426.62 8.79C426.76 8.79 426.76 8.81 426.83 9.03C427.10 9.77 427.81 11.89 427.81 12.17C427.81 12.18 427.80 12.18 427.80 12.18L427.03 12.18C426.80 12.18 426.79 12.19 426.79 12.39C426.79 12.63 426.80 12.68 426.97 12.68C427.29 12.68 428.16 12.64 428.58 12.64C429.00 12.64 429.67 12.68 429.88 12.68C430.02 12.68 430.04 12.61 430.04 12.40C430.04 12.24 430.02 12.18 429.88 12.18L429.39 12.18C429.30 12.18 428.27 9.34 427.71 7.78L426.03 3.07C426.02 3.00 425.95 2.94 425.87 2.94C425.74 2.94 425.64 3.16 425.56 3.35C425.40 3.71 425.17 3.84 425.05 4.13L423.57 7.57C423.39 8.01 421.68 12.18 421.55 12.18L421.13 12.18C420.91 12.18 420.88 12.19 420.88 12.39ZM423.78 8.33C423.78 8.30 423.81 8.23 423.85 8.13L425.22 4.77C425.26 4.66 425.29 4.61 425.32 4.61C425.33 4.61 425.35 4.63 425.39 4.77L426.55 8.18C426.58 8.25 426.59 8.29 426.59 8.32C426.59 8.36 426.57 8.37 426.47 8.37L423.96 8.37C423.78 8.37 423.78 8.34 423.78 8.33ZM437.58 7.91C437.58 11.40 439.95 12.89 442.54 12.89C444.43 12.89 446.43 11.89 446.43 11.58C446.43 11.12 446.45 10.68 446.45 10.33C446.45 9.81 446.46 9.56 446.59 9.56L447.02 9.56C447.16 9.56 447.17 9.39 447.17 9.30C447.17 9.18 447.16 9.06 447.02 9.06C446.80 9.06 446.43 9.10 445.76 9.10C445.31 9.10 444.57 9.07 443.88 9.06C443.74 9.06 443.74 9.24 443.74 9.35C443.74 9.45 443.77 9.56 443.90 9.56L445.12 9.56C445.16 9.56 445.21 9.87 445.21 10.33C445.21 10.82 445.20 11.41 445.17 11.65C445.16 11.76 444.51 12.39 442.93 12.39C440.69 12.39 439.10 10.29 439.10 7.94C439.10 5.42 440.65 3.54 442.65 3.54C444.54 3.54 445.72 4.87 445.72 5.03C445.72 5.15 445.66 6.12 445.66 6.17C445.66 6.31 445.70 6.36 445.97 6.36C446.17 6.36 446.24 6.33 446.24 6.15C446.24 5.43 446.28 3.75 446.28 3.56C446.28 3.36 446.18 3.33 445.97 3.33C445.75 3.33 445.72 3.39 445.72 3.56L445.72 3.91C445.72 3.99 445.68 4.02 445.55 3.92C445.27 3.72 444.28 3.08 442.71 3.08C439.87 3.08 437.58 4.79 437.58 7.91ZM455.21 12.39C455.21 12.63 455.24 12.68 455.43 12.68C455.76 12.68 456.72 12.64 457.14 12.64C457.56 12.64 462.07 12.68 462.39 12.68C462.52 12.68 462.67 12.66 462.67 12.49C462.67 12.07 462.71 11.23 462.71 10.53C462.71 10.39 462.56 10.39 462.43 10.39C462.32 10.39 462.20 10.39 462.20 10.51C462.18 11.06 462.18 11.41 462.15 11.76C462.13 12.01 462.13 12.04 462.03 12.04C461.87 12.04 459.24 12.08 457.74 12.08C457.67 12.08 457.63 10.11 457.59 8.26C457.59 8.06 457.63 8.09 457.77 8.09L460.05 8.09C460.75 8.09 460.78 8.20 460.78 8.30L460.78 9.00C460.78 9.14 460.96 9.14 461.08 9.14C461.17 9.14 461.30 9.13 461.30 9.02C461.30 8.83 461.27 8.33 461.27 7.83C461.27 7.32 461.30 6.83 461.30 6.71C461.30 6.59 461.16 6.58 461.06 6.58C460.95 6.58 460.78 6.59 460.78 6.72L460.78 7.45C460.78 7.62 460.33 7.63 460.05 7.63L457.72 7.63C457.60 7.63 457.59 7.63 457.59 7.45C457.58 6.75 457.56 6.06 457.56 5.46C457.56 5.12 457.56 3.71 457.65 3.71C458.88 3.71 461.38 3.75 461.38 3.81C461.38 3.99 461.34 4.83 461.34 4.89C461.34 5.04 461.41 5.10 461.59 5.10C461.79 5.10 461.86 5.08 461.86 4.94C461.86 3.85 461.92 3.36 461.92 3.09C461.92 2.91 461.83 2.90 461.64 2.90C461.44 2.90 461.44 2.95 461.41 3.11C461.40 3.25 461.47 3.25 460.56 3.25C459.94 3.25 457.80 3.29 457.03 3.29C456.54 3.29 455.60 3.25 455.50 3.25C455.38 3.25 455.32 3.30 455.32 3.49C455.32 3.72 455.39 3.74 455.56 3.74L456.22 3.74C456.27 3.74 456.34 4.79 456.34 5.71C456.34 5.80 456.40 8.27 456.40 9.83L456.40 11.17C456.40 11.84 456.37 12.18 456.34 12.18L455.49 12.18C455.27 12.18 455.21 12.21 455.21 12.39Z"></path></g></svg>