<svg data-v-423bf9ae="" xmlns="http://www.w3.org/2000/svg" viewBox="0 0 548.9493443265324 60" class="font"><!----><!----><!----><g data-v-423bf9ae="" id="9a70a276-eacd-45e4-a704-e1df8cd79ef2" fill="black" transform="matrix(5.628517904206723,0,0,5.628517904206723,-2.4765520613318586,-32.02626767383979)"><path d="M7.44 12.69L8.53 12.69Q8.53 13.69 8.37 14.37Q8.20 15.04 7.82 15.44Q7.43 15.85 6.80 16.02Q6.17 16.19 5.25 16.19L5.25 16.19Q4.35 16.19 3.75 16.05Q3.14 15.91 2.76 15.59Q2.39 15.26 2.22 14.71Q2.06 14.16 2.06 13.34L2.06 13.34L2.06 9.39L0.44 9.39L0.44 8.31L2.06 8.31L2.06 6.16L3.37 6.16L3.37 8.31L8.31 8.31L8.31 9.39L3.37 9.39L3.37 13.34Q3.37 14 3.47 14.36Q3.57 14.71 3.79 14.88Q4.01 15.04 4.36 15.07Q4.72 15.09 5.24 15.09L5.24 15.09Q5.65 15.09 5.98 15.08Q6.30 15.07 6.55 14.99Q6.79 14.92 6.96 14.78Q7.13 14.63 7.24 14.36Q7.34 14.10 7.39 13.69Q7.44 13.28 7.44 12.69L7.44 12.69ZM9.63 12.20L9.63 12.20Q9.63 10.99 9.88 10.19Q10.14 9.40 10.72 8.93Q11.29 8.47 12.21 8.28Q13.13 8.09 14.44 8.09L14.44 8.09Q15.75 8.09 16.67 8.28Q17.58 8.47 18.16 8.93Q18.73 9.40 18.99 10.19Q19.25 10.99 19.25 12.20L19.25 12.20Q19.25 13.41 18.99 14.21Q18.73 15.00 18.16 15.48Q17.58 15.95 16.67 16.14Q15.75 16.34 14.44 16.34L14.44 16.34Q13.13 16.34 12.21 16.14Q11.29 15.95 10.72 15.48Q10.14 15.00 9.88 14.21Q9.63 13.41 9.63 12.20ZM10.94 12.20L10.94 12.20Q10.94 12.85 10.99 13.34Q11.03 13.82 11.17 14.17Q11.30 14.52 11.54 14.74Q11.78 14.96 12.17 15.09Q12.56 15.22 13.11 15.26Q13.67 15.31 14.44 15.31L14.44 15.31Q15.09 15.31 15.61 15.28Q16.13 15.25 16.51 15.14Q16.90 15.03 17.17 14.83Q17.45 14.63 17.61 14.28Q17.78 13.93 17.86 13.42Q17.94 12.91 17.94 12.20L17.94 12.20Q17.94 11.49 17.86 11.00Q17.78 10.50 17.61 10.17Q17.45 9.83 17.17 9.64Q16.90 9.44 16.51 9.34Q16.13 9.24 15.61 9.21Q15.09 9.19 14.44 9.19L14.44 9.19Q13.78 9.19 13.27 9.21Q12.75 9.24 12.36 9.34Q11.98 9.44 11.70 9.64Q11.43 9.83 11.26 10.17Q11.09 10.50 11.02 11.00Q10.94 11.49 10.94 12.20ZM29.97 16.19L28.66 16.19L28.66 11.81Q28.66 11.08 28.55 10.58Q28.44 10.08 28.11 9.77Q27.78 9.46 27.18 9.32Q26.58 9.19 25.59 9.19L25.59 9.19Q24.53 9.19 23.85 9.34Q23.17 9.50 22.78 9.79Q22.39 10.08 22.24 10.48Q22.09 10.88 22.09 11.38L22.09 11.38L22.09 16.19L20.78 16.19L20.78 8.31L22.09 8.31L22.09 9.63Q22.24 9.29 22.50 9.05Q22.77 8.80 23.11 8.63Q23.44 8.46 23.83 8.36Q24.22 8.25 24.61 8.19Q25.00 8.13 25.36 8.11Q25.73 8.09 26.03 8.09L26.03 8.09Q26.91 8.09 27.54 8.20Q28.17 8.31 28.61 8.52Q29.05 8.74 29.32 9.05Q29.59 9.37 29.73 9.78Q29.88 10.19 29.93 10.70Q29.98 11.21 29.98 11.81L29.98 11.81L29.97 16.19ZM36.32 16.34L36.32 16.34Q35.01 16.34 34.09 16.16Q33.17 15.98 32.60 15.53Q32.03 15.09 31.77 14.34Q31.51 13.60 31.51 12.47L31.51 12.47Q31.51 11.18 31.77 10.33Q32.03 9.49 32.60 8.99Q33.17 8.49 34.09 8.29Q35.01 8.09 36.32 8.09L36.32 8.09Q37.26 8.09 37.94 8.23Q38.63 8.37 39.12 8.63Q39.61 8.89 39.91 9.26Q40.22 9.63 40.39 10.03Q40.56 10.44 40.63 10.99Q40.69 11.53 40.69 12.14L40.69 12.14L40.58 12.58L32.82 12.58Q32.82 13.48 33.00 14.06Q33.17 14.64 33.58 14.90Q34.00 15.17 34.67 15.24Q35.33 15.31 36.32 15.31L36.32 15.31Q37.22 15.31 37.81 15.26Q38.40 15.21 38.75 15.07Q39.10 14.92 39.24 14.67Q39.38 14.41 39.38 14L39.38 14L40.69 14Q40.69 14.64 40.47 15.08Q40.25 15.53 39.74 15.81Q39.22 16.08 38.39 16.21Q37.55 16.34 36.32 16.34ZM36.32 9.19L36.32 9.19Q35.66 9.19 35.15 9.21Q34.63 9.24 34.24 9.33Q33.86 9.43 33.58 9.60Q33.31 9.78 33.14 10.01Q32.98 10.25 32.90 10.67Q32.82 11.10 32.82 11.70L32.82 11.70L39.38 11.70Q39.38 10.90 39.21 10.45Q39.04 9.99 38.67 9.70Q38.30 9.41 37.72 9.30Q37.14 9.19 36.32 9.19ZM50.76 11.31L50.76 16.19L49.44 16.19L49.44 11.74Q49.44 11.03 49.35 10.54Q49.26 10.06 48.98 9.75Q48.69 9.45 48.18 9.32Q47.66 9.19 46.82 9.19L46.82 9.19Q45.90 9.19 45.30 9.34Q44.71 9.50 44.37 9.77Q44.02 10.05 43.89 10.44Q43.76 10.83 43.76 11.31L43.76 11.31L43.76 16.19L42.44 16.19L42.44 8.31L43.76 8.31L43.76 9.56Q43.76 9.54 43.82 9.42Q43.87 9.30 44.01 9.14Q44.15 8.98 44.40 8.80Q44.64 8.61 45.02 8.46Q45.41 8.30 45.96 8.20Q46.50 8.09 47.26 8.09L47.26 8.09Q48.00 8.09 48.54 8.19Q49.08 8.28 49.47 8.46Q49.85 8.64 50.10 8.91Q50.34 9.18 50.48 9.53L50.48 9.53Q50.60 9.34 50.85 9.10Q51.09 8.85 51.53 8.63Q51.97 8.40 52.64 8.25Q53.30 8.09 54.26 8.09L54.26 8.09Q55.04 8.09 55.61 8.20Q56.17 8.31 56.56 8.51Q56.95 8.72 57.19 9.03Q57.42 9.34 57.55 9.74Q57.67 10.15 57.72 10.65Q57.76 11.16 57.76 11.74L57.76 11.74L57.76 16.19L56.44 16.19L56.44 11.74Q56.44 11.03 56.35 10.54Q56.26 10.06 55.98 9.75Q55.69 9.45 55.18 9.32Q54.66 9.19 53.82 9.19L53.82 9.19Q52.90 9.19 52.30 9.34Q51.71 9.50 51.37 9.77Q51.02 10.05 50.89 10.44Q50.76 10.83 50.76 11.31L50.76 11.31ZM67.35 16.19L67.35 15.11Q67.33 15.19 67.04 15.52L67.04 15.52Q66.83 15.76 66.49 15.95Q66.15 16.14 65.58 16.25Q65.01 16.35 64.08 16.35L64.08 16.35Q62.84 16.35 61.97 16.23Q61.09 16.10 60.54 15.84Q59.99 15.57 59.73 15.16Q59.47 14.75 59.47 14.18L59.47 14.18Q59.47 13.59 59.61 13.18Q59.75 12.76 60.02 12.48Q60.29 12.20 60.68 12.04Q61.06 11.89 61.55 11.81Q62.04 11.72 62.62 11.70Q63.20 11.68 63.85 11.68L63.85 11.68Q64.79 11.68 65.42 11.76Q66.05 11.84 66.45 11.96Q66.85 12.08 67.05 12.22Q67.26 12.35 67.35 12.47L67.35 12.47Q67.35 11.70 67.28 11.16Q67.22 10.62 67.07 10.26Q66.92 9.90 66.69 9.68Q66.46 9.47 66.12 9.36Q65.78 9.25 65.33 9.22Q64.88 9.19 64.30 9.19L64.30 9.19Q63.40 9.19 62.80 9.23Q62.21 9.28 61.86 9.41Q61.51 9.54 61.37 9.77Q61.22 9.99 61.22 10.36L61.22 10.36L59.91 10.36Q59.91 9.74 60.13 9.31Q60.35 8.88 60.87 8.61Q61.39 8.34 62.23 8.22Q63.07 8.09 64.30 8.09L64.30 8.09Q65.50 8.09 66.34 8.29Q67.17 8.49 67.69 8.99Q68.20 9.49 68.43 10.33Q68.66 11.18 68.66 12.47L68.66 12.47L68.66 16.19L67.35 16.19ZM64.30 15.31L64.30 15.31Q65.17 15.31 65.75 15.23Q66.34 15.15 66.69 14.98Q67.05 14.82 67.20 14.57Q67.35 14.33 67.35 14L67.35 14Q67.35 13.67 67.17 13.44Q67.00 13.21 66.59 13.07Q66.19 12.93 65.52 12.86Q64.85 12.80 63.86 12.80L63.86 12.80Q62.88 12.80 62.27 12.83Q61.67 12.87 61.34 12.99Q61.01 13.11 60.90 13.35Q60.79 13.59 60.79 14L60.79 14Q60.79 14.41 60.90 14.67Q61.02 14.92 61.39 15.07Q61.76 15.21 62.46 15.26Q63.15 15.31 64.30 15.31ZM78.29 10.88L77.19 10.88Q77.19 10.38 77.12 10.06Q77.05 9.73 76.78 9.54Q76.51 9.34 75.99 9.27Q75.47 9.19 74.57 9.19L74.57 9.19Q73.68 9.19 73.13 9.34Q72.58 9.50 72.26 9.78Q71.95 10.06 71.84 10.45Q71.72 10.83 71.72 11.31L71.72 11.31L71.72 16.19L70.41 16.19L70.41 8.31L71.72 8.31L71.72 9.56Q71.79 9.35 71.98 9.10Q72.16 8.84 72.54 8.62Q72.91 8.39 73.51 8.24Q74.11 8.09 75.00 8.09L75.00 8.09Q76.03 8.09 76.67 8.27Q77.31 8.46 77.67 8.81Q78.03 9.16 78.16 9.68Q78.29 10.20 78.29 10.88L78.29 10.88ZM79.16 16.19L79.16 5.69L80.47 5.69L80.47 11.43L80.91 11.43L85.72 8.31L87.69 8.31L82.11 11.98L87.91 16.19L85.94 16.19L80.91 12.41L80.47 12.41L80.47 16.19L79.16 16.19ZM93.38 12.60L93.38 12.60Q94.14 12.60 94.68 12.62Q95.22 12.65 95.59 12.70Q95.96 12.76 96.17 12.85Q96.38 12.94 96.49 13.11Q96.60 13.29 96.63 13.46Q96.66 13.64 96.66 13.86L96.66 13.86Q96.66 14.11 96.63 14.31Q96.60 14.51 96.48 14.68Q96.37 14.84 96.14 14.96Q95.92 15.07 95.53 15.16Q95.14 15.24 94.56 15.27Q93.98 15.31 93.16 15.31L93.16 15.31Q92.26 15.31 91.67 15.26Q91.08 15.21 90.73 15.07Q90.38 14.92 90.24 14.67Q90.10 14.41 90.10 14L90.10 14L88.79 14Q88.79 14.62 89.01 15.05Q89.23 15.48 89.74 15.75Q90.25 16.02 91.09 16.15Q91.93 16.27 93.16 16.27L93.16 16.27Q94.14 16.27 94.89 16.21Q95.63 16.15 96.16 16.03Q96.69 15.91 97.05 15.72Q97.40 15.52 97.60 15.25Q97.81 14.98 97.89 14.63Q97.97 14.28 97.97 13.84L97.97 13.84Q97.97 13.39 97.89 13.05Q97.81 12.71 97.61 12.47Q97.41 12.22 97.07 12.00Q96.74 11.79 96.22 11.69Q95.71 11.59 95.01 11.55Q94.31 11.50 93.38 11.50L93.38 11.50Q92.61 11.50 92.07 11.50Q91.53 11.50 91.17 11.46Q90.80 11.42 90.59 11.35Q90.38 11.27 90.27 11.13Q90.16 10.99 90.13 10.76Q90.10 10.54 90.10 10.31L90.10 10.31Q90.10 9.91 90.28 9.69Q90.45 9.46 90.86 9.35Q91.27 9.24 91.94 9.21Q92.61 9.19 93.60 9.19L93.60 9.19Q94.50 9.19 95.09 9.24Q95.68 9.29 96.03 9.42Q96.38 9.56 96.52 9.79Q96.66 10.02 96.66 10.39L96.66 10.39L97.97 10.39Q97.97 9.80 97.77 9.37Q97.58 8.93 97.08 8.65Q96.58 8.37 95.74 8.23Q94.90 8.09 93.60 8.09L93.60 8.09Q92.29 8.09 91.37 8.21Q90.45 8.33 89.88 8.59Q89.30 8.85 89.04 9.27Q88.79 9.69 88.79 10.31L88.79 10.31Q88.79 10.76 88.87 11.15Q88.95 11.53 89.15 11.80Q89.35 12.06 89.68 12.22Q90.02 12.37 90.53 12.46Q91.04 12.54 91.75 12.57Q92.45 12.60 93.38 12.60Z"></path></g><!----><!----></svg>